<svg width="321" height="128" viewBox="0 0 321 128" fill="none" xmlns="http://www.w3.org/2000/svg">
<path d="M319.535 38.3344C319.478 38.3071 319.423 38.193 319.388 38.1856C319.388 37.3968 319.388 36.6005 319.388 35.8117C319.599 35.4768 319.745 35.0353 319.388 34.7724C318.984 34.3705 319.388 33.6363 319.344 33.2319C319.299 32.7805 318.778 32.1355 319.239 31.4956C320.152 30.9548 320.12 29.6103 319.373 28.9133C319.061 28.6231 318.396 28.4693 318.2 28.2312C317.918 27.5747 317.669 26.904 317.456 26.2219C317.456 25.9739 318.16 25.4405 318.344 24.8179C318.438 24.3263 318.438 23.8212 318.344 23.3296C317.89 21.7098 316.516 20.0478 314.623 20.5117C314.335 20.0528 314.033 19.4624 313.733 19.0234C313.539 18.7431 312.609 17.7062 312.596 17.4631C312.596 17.3589 312.845 16.9472 312.845 16.5775C312.911 15.367 311.957 14.4393 310.756 14.866L310.565 14.8387C310.012 14.6675 309.206 13.7224 309.042 13.3677C308.935 13.137 309.116 13.1197 309.124 13.0874C309.233 12.3433 309.335 11.8769 308.896 11.1625C308.456 10.4481 307.826 9.92224 307.194 10.7111C306.596 11.4552 307.092 11.17 307.194 11.413C307.296 11.6561 307.154 12.0555 307.499 12.3433C307.463 12.3594 307.426 12.3727 307.387 12.3829C307.241 12.3829 307.097 12.3978 306.951 12.3978C306.678 12.3333 306.432 12.1771 306.241 12.187C306.1 12.187 306.043 12.3358 306.013 12.3433C306.136 12.3244 306.261 12.3372 306.378 12.3805L306.013 12.3433C305.83 12.3978 305.668 12.5615 305.42 12.4921C306.346 11.5346 306.346 11.5222 305.42 10.5647C305.611 10.4059 306.608 11.6958 306.752 10.3166C306.916 8.77127 305.19 10.2472 305.075 10.2373C304.614 10.1926 303.617 9.05405 303.046 8.9201C303.002 8.55794 303.133 7.84106 303.046 7.58557C302.997 7.4417 302.265 7.05473 302.054 7.02C301.31 6.90838 300.928 7.42433 300.635 7.40697C300.195 7.24672 299.765 7.05865 299.348 6.84388C299.075 6.57102 299.239 5.71772 299.135 5.20176C298.998 4.7191 298.768 4.26809 298.457 3.87467C297.495 2.72618 295.6 2.29952 294.263 3.01888C293.417 3.4753 293.092 5.05789 291.916 3.96149C291.559 3.6291 291.668 3.19748 291.42 2.8378C291.041 2.29704 289.986 2.2772 289.411 2.45828C288.892 2.61951 288.855 3.23221 288.451 3.28926C288.111 3.33887 287.707 3.07345 287.34 3.13299C287.34 3.04617 287.163 2.07379 287.121 1.94232C286.625 0.307644 284.988 -0.215751 283.418 0.0273422C281.954 0.253072 281.322 2.35906 281.156 2.39626C280.775 2.42724 280.393 2.42724 280.012 2.39626C279.93 2.37394 279.719 1.2949 278.819 1.34947C278.075 1.3966 278.075 2.24743 277.636 2.41363C277.197 2.57982 273.652 3.08338 273.419 2.94943C273.228 2.8378 273.039 1.96961 272.26 1.65954C270.772 1.07165 269.361 1.68435 268.971 3.23965C268.917 3.45794 268.971 3.92924 268.922 4.00366C268.797 4.15497 265.337 4.91154 265.141 4.89914C264.685 4.87433 264.695 4.15497 263.859 4.35093C262.618 4.64364 263.075 5.59121 262.122 6.08732C261.474 6.37004 260.812 6.61844 260.138 6.83148C260.011 6.8166 260.031 6.47428 259.813 6.39739C259.517 6.31593 259.204 6.32774 258.915 6.43119C258.627 6.53464 258.377 6.72468 258.201 6.97535C258.029 7.22341 258.012 7.60045 257.824 7.78649C257.099 8.49593 255.343 8.89033 254.562 9.71388C254.289 9.79573 253.599 9.13343 252.783 9.71388C251.967 10.2943 252.535 11.0509 252.404 11.4255C251.868 12.0229 251.299 12.5894 250.699 13.1221C250.332 13.2933 249.29 12.9907 248.698 13.0502C248.256 13.0924 248.177 13.2387 247.884 13.3454C247.075 13.6381 246.287 14.0896 245.805 14.8337C245.289 15.7003 245.084 16.7172 245.225 17.7161C245.309 18.3015 245.785 18.7083 245.582 19.2789C245.188 19.9852 244.757 20.6708 244.292 21.3328C244.079 21.4568 243.208 21.3154 242.804 21.3997C241.492 21.6627 240.844 23.7091 241.204 24.8725C241.358 25.3686 242.037 26.0408 242.072 26.2219C242.097 26.341 241.73 27.492 241.658 27.7574C241.511 28.3031 241.378 28.8513 241.211 29.3896C239.361 29.3176 238.388 31.8924 239.8 33.1104C239.991 33.2741 240.442 33.3584 240.477 33.4998C240.618 34.0828 240.331 34.8319 240.316 35.3999C240.298 36.1193 240.489 37.5481 240.41 38.0839C240.38 38.2823 239.76 38.7313 239.584 38.9694C237.565 41.6807 237.793 45.0344 240.767 46.9072C241.511 47.3785 241.653 47.4256 242.548 47.5C243.037 47.6225 243.548 47.6225 244.037 47.5C244.45 47.4374 244.852 47.3146 245.23 47.1354C245.994 46.7708 246.691 45.7984 247.45 46.1655C247.504 46.1903 248.415 46.7484 248.442 46.7956C248.655 47.0585 248.512 47.6662 249.018 48.073C250.094 48.9363 250.61 47.7307 251.3 47.8548C251.755 47.9847 252.203 48.1387 252.642 48.3161C252.875 48.4997 252.617 48.7602 252.706 48.9784C252.954 49.5639 253.971 49.4746 254.353 49.1446C254.601 48.9214 254.497 48.4997 254.71 48.3161C254.882 48.1723 255.388 48.14 255.603 47.9465C256.077 48.1772 256.1 48.4426 256.377 48.5791C256.537 48.6621 256.713 48.7074 256.893 48.7114C257.073 48.7155 257.251 48.6782 257.414 48.6025C257.577 48.5267 257.72 48.4145 257.833 48.2746C257.946 48.1346 258.025 47.9706 258.064 47.7952C258.203 47.18 257.588 46.8179 258.58 46.3863C259.091 46.163 259.545 46.7683 259.907 46.9072C262.388 47.8672 265.034 45.4908 264.953 42.8986C265.625 42.1545 264.491 39.8004 263.464 39.922C263.67 39.922 263.851 39.7905 264.003 39.4953C265.739 39.7235 267.18 38.0566 266.106 36.4839C265.319 36.0226 265.279 35.2891 265.987 34.2837L266.185 34.249C266.344 34.6086 266.53 34.497 266.434 34.1349C267.064 34.4648 267.907 33.4329 267.473 32.9467L267.704 32.8698C267.416 32.711 267.557 32.334 267.679 32.0512C267.323 31.5948 267.304 31.2516 267.622 31.0218C268.862 30.7737 269.626 30.228 269.246 28.8587L269.668 28.2659C271.509 28.6454 272.302 27.7251 272.265 25.9441C272.31 25.7407 272.389 25.6688 272.6 25.6688C274.066 27.0752 275.227 25.8002 275.329 24.1804C275.492 24.4285 275.778 24.4806 276.185 24.3541C277.177 27.487 281.595 27.2563 282.634 24.2697L283.639 24.5575C283.562 26.145 284.658 27.2191 286.236 27.0901C286.903 27.0355 288.198 26.594 287.945 25.8151C287.999 26.2021 288.366 26.4873 289.044 26.6709C288.749 28.0947 289.907 29.0795 291.276 28.7769C291.749 29.1076 291.732 29.6037 291.224 30.2652L291.358 30.5629C290.862 31.3492 291.76 32.5672 292.64 32.7954C293.633 32.8127 293.772 33.3808 292.918 33.8471C291.881 35.0204 292.452 36.5757 293.863 37.114C294.077 37.6275 293.863 37.9599 293.214 38.1062C292.66 38.3559 292.387 38.6635 292.395 39.029C290.778 40.1527 291.673 42.0056 292.951 43.0822L292.936 43.4915C290.108 43.1889 288.781 46.1754 290.078 48.4526C289.785 48.8222 289.669 49.1446 289.723 49.42C288.667 50.4122 288.731 49.7573 287.57 49.859C287.279 49.8928 286.999 49.9967 286.757 50.1617C285.707 50.4593 285.41 51.4516 285.866 53.1383C285.824 53.1755 285.618 53.1706 285.497 53.2822C285.248 53.5303 284.504 54.3935 284.274 54.453C283.711 54.6093 282.765 53.7088 281.27 54.257C279.724 54.8301 278.871 57.1122 279.781 58.474C279.533 58.9874 278.268 60.4014 277.809 60.5924C277.35 60.7834 276.733 60.4758 276.155 60.5626C275.063 60.7238 274.334 62.0658 274.666 63.0828C274.736 63.3011 275.066 63.5194 275.029 63.7203C275.009 63.8344 273.883 65.3773 273.709 65.5981C273.213 66.2455 272.965 65.8263 272.146 65.8883C270.41 66.0173 269.552 67.5726 269.884 69.1999C269.993 69.7307 270.715 70.4401 270.745 70.7204C270.794 71.1893 270.249 71.8913 270.296 72.4246C269.847 72.4237 269.399 72.4736 268.961 72.5734C267.212 73.1811 266.652 75.3888 267.709 76.8672C268.133 77.4576 268.616 77.4725 268.961 77.7677C269.021 78.7028 269.068 79.643 269.11 80.5856V81.7737C268.668 82.0924 268.245 82.4378 267.845 82.8081C266.853 83.8748 266.483 85.6211 267.031 86.968C268.073 89.5205 271.248 90.4408 273.414 88.6002C274.624 87.5658 274.977 85.6037 274.451 84.1352L278.995 82.059C279.531 81.9846 279.784 82.8032 280.196 82.9173C282.076 83.4729 283.386 81.3496 281.724 80.1291C281.88 78.5466 283.443 80.0597 284.105 78.874C285.219 76.8895 281.897 75.9519 281.716 77.976C281.637 78.869 282.252 79.0526 281.572 79.7C281.518 79.7375 281.469 79.7817 281.426 79.8315C281.229 79.8103 281.03 79.8103 280.833 79.8315L279.496 74.342C281.513 74.0543 282.262 71.4572 280.984 69.9614C280.374 69.247 279.481 69.5893 279.794 68.5524C279.838 68.4086 280.054 67.6892 280.091 67.6619C280.129 67.6346 280.461 67.7959 280.625 67.7959C280.788 67.7959 281.051 67.6718 281.188 67.6966C281.324 67.7215 282.155 68.9072 282.316 69.1478C283.41 70.7626 284.301 72.556 285.375 74.1882C285.623 74.7662 284.762 74.9026 284.916 75.5153C285.241 76.8251 286.216 76.386 286.548 76.7134C286.796 76.9441 287.66 79.0079 287.903 79.514C288.027 79.7744 288.18 79.9431 288.104 80.278C287.724 81.4165 287.957 82.2426 288.848 83.0264C289.096 83.2348 289.669 83.4307 289.726 83.6391C289.688 84.0568 289.621 84.4713 289.525 84.8794C289.446 85.0009 288.533 85.2614 288.25 85.3755C287.967 85.4896 287.687 85.8939 287.506 85.8468C287.124 85.6401 286.754 85.4123 286.397 85.1646C286.179 84.7951 286.509 83.9244 285.817 83.5201C284.733 82.8801 283.386 84.031 284.246 85.0927C284.646 85.5888 285.201 85.445 284.693 86.4967C283.837 86.6753 283.902 87.5658 283.787 87.6675C283.673 87.7692 281.654 87.7643 281.577 87.6849C281.569 87.4357 281.546 87.1872 281.508 86.9407C280.974 85.2415 278.283 85.5715 278.462 87.5385C278.571 88.7788 279.647 89.3766 280.796 88.9103C281.25 88.7267 281.369 88.186 281.577 88.0594C281.786 87.9329 283.46 87.923 283.706 88.0074C283.951 88.0917 284.063 88.5357 284.318 88.7292C285.035 89.2675 285.916 88.8805 286.03 87.985C286.176 87.794 286.114 87.6229 286.38 87.5112C287.632 86.9928 287.255 87.8536 287.965 88.3497C289.751 89.5899 291.891 87.2632 290.549 85.6211C290.366 85.3953 289.981 85.2837 289.909 85.0729C289.818 84.8099 289.989 83.7408 290.18 83.6069C290.763 83.1976 291.683 83.7185 292.32 82.3368C292.958 80.9552 292.397 79.9977 291.373 79.0873C291.685 78.8244 291.971 77.1351 292.134 77.0309C292.298 76.9268 293.268 77.0483 293.722 76.9119C294.501 76.6638 295.357 75.6245 295.491 74.8233C295.59 74.2354 295.339 73.521 295.401 73.2555C295.498 72.8388 296.394 72.5362 296.565 72.112C296.999 71.8838 297.351 72.2212 297.909 72.0475C298.571 71.8416 298.718 71.0082 298.815 70.9486C298.976 70.8469 299.68 70.9685 300.023 70.8941C300.849 70.713 301.511 69.6885 301.58 68.8799C301.618 68.4036 301.268 67.7884 301.384 67.5156C301.831 67.0642 302.303 66.6385 302.798 66.2406C302.952 66.1711 303.111 66.4489 303.327 66.4886C303.803 66.5556 303.768 66.1736 303.987 65.9578C304.115 65.8263 304.396 65.7494 304.413 65.7097C304.522 65.5262 304.2 65.1938 304.351 64.849C304.502 64.5042 305.182 64.3529 305.321 63.9535C306.636 65.2632 308.938 64.2338 308.896 62.3957C308.896 62.0832 308.647 61.5102 308.762 61.3092C308.804 61.2348 309.937 60.3939 310.118 60.2649C311.059 61.1158 312.974 60.513 313.177 59.2727C313.298 58.5285 312.85 57.5363 312.996 57.1742C313.33 56.6705 313.691 56.1852 314.077 55.7206C314.643 55.408 315.514 56.0009 316.216 55.1873C316.712 54.6266 316.712 53.6369 316.451 52.9746C316.389 52.8109 316.044 52.6769 316.072 52.3669C316.072 52.2379 316.98 50.0476 317.064 49.9434C317.337 49.5787 318.689 49.7152 318.952 48.5642C319.096 47.9292 318.718 46.7881 318.091 46.5798C318.557 45.9671 318.495 44.1662 318.815 43.6998C318.867 43.6254 319.807 43.4518 320.316 42.7944C321.365 41.4252 321.306 39.1431 319.535 38.3344ZM286.181 87.0424L286.065 87.2086C286.273 86.782 285.432 86.1469 285.107 86.5637L285.335 86.3156C285.015 84.6933 288.813 86.7919 286.181 87.0424ZM306.822 14.5832C307.601 14.6576 308.151 14.3525 308.786 13.9506C309.204 14.349 309.567 14.8002 309.868 15.2926L310.185 15.3323C309.54 15.2356 309.526 16.2501 309.652 16.7363C309.987 18.0212 311.116 18.3115 312.296 18.0609C312.977 18.888 313.553 19.7962 314.01 20.7647L314.343 20.8218C313.167 20.7275 313.177 22.6499 313.202 23.5504L309.965 24.4905C309.965 23.6149 308.079 23.2006 307.367 23.6347C306.961 22.7516 305.361 21.4394 305.066 20.658C304.897 20.2115 305.691 19.4178 304.845 18.5893L305.222 18.5521C305.791 17.2456 306.324 15.9227 306.822 14.5832ZM313.599 32.8425C312.582 32.6713 312.668 34.3978 312.879 35.1221L311.255 37.2653C310.813 37.0892 310.419 37.1537 310.185 37.5903C308.965 37.0015 307.725 36.4591 306.465 35.963C306.291 35.2585 306.001 34.9113 305.594 34.9212C306.047 34.2274 306.568 33.5801 307.149 32.9888C307.524 32.5895 310.081 29.9477 310.297 29.8981C310.513 29.8485 310.768 30.0147 311.011 30.0246C311.255 30.0345 311.485 29.8261 311.676 29.9403C311.994 30.1337 313.266 32.3687 313.599 32.8425ZM317.014 42.3405L313.601 43.0847V42.7448C312.904 42.8565 311.756 39.5697 311.885 39.4259C312.014 39.282 316.302 40.5495 316.471 40.7207C316.526 40.7838 316.558 40.8632 316.563 40.9464C316.449 41.7898 316.6 42.2537 317.014 42.3405ZM312.2 44.4663C311.836 45.7711 311.469 47.0726 311.098 48.3707C310.224 48.2933 309.349 48.5155 308.618 49.0008L304.679 46.0688C304.163 45.8207 302.786 45.1038 303.954 44.8657L304.108 44.568C306.837 44.32 309.55 43.9727 312.269 43.8239C312.068 43.9653 312.053 44.1786 312.197 44.4663H312.2ZM300.692 43.8239L300.546 43.5237C299.321 42.9631 298.103 42.3843 296.892 41.7873C297.356 39.8848 296.644 38.5899 294.873 37.8582L294.851 37.0917C295.453 36.842 295.94 36.378 296.22 35.7894L298.058 36.3326C297.783 36.8287 298.581 37.6423 299.05 36.9875C299.515 37.5529 299.938 38.1505 300.318 38.776C300.336 38.8252 300.36 38.8726 300.387 38.9173C299.147 39.7434 301.02 41.001 301.771 39.7434C302.005 38.6652 302.702 38.394 303.862 38.9298C305.867 38.2774 307.774 38.4932 309.843 38.7735C309.924 38.9929 310.069 39.1832 310.258 39.3206C310.448 39.4579 310.673 39.5359 310.907 39.5449L311.753 41.6881C312.249 42.5265 312.167 43.1368 311.505 43.5188C309.456 43.747 307.4 43.9082 305.348 44.1141C304.77 44.1511 304.197 44.25 303.639 44.4093C303.282 43.4741 302.801 43.0227 301.759 43.0375C301.342 43.0549 300.514 43.3129 300.69 43.8239H300.692ZM295.349 27.353C295.754 26.914 296.381 26.4352 296.838 26.016C296.803 26.4973 297.177 26.9041 297.961 27.2414C297.986 27.3406 297.485 29.149 297.396 29.1961C297.306 29.2432 295.076 29.6922 294.96 29.6475C294.746 29.4905 294.545 29.3163 294.36 29.1266L295.476 27.6631L295.349 27.353ZM301.074 23.0096C301.102 22.8707 303.009 21.2062 303.17 21.1666C303.247 21.1467 304.679 21.2137 304.751 21.2459L306.884 23.848L307.07 23.8158C306.742 23.9497 306.507 24.5848 306.442 24.8998C306.334 25.3062 306.334 25.7337 306.442 26.1401C304.362 27.3109 302.263 28.461 300.147 29.5905C299.437 29.521 298.978 29.6649 298.772 30.0171C298.884 29.7691 298.728 29.5558 298.301 29.4094C298.507 28.7248 298.681 28.0302 298.822 27.3307C299.551 27.3406 299.93 27.1472 299.958 26.7503C300.382 27.1199 300.841 26.47 301.072 26.0904C301.635 25.1702 301.543 23.9473 301.072 23.0096H301.074ZM310.175 28.3378C309.694 28.8339 310.064 29.3003 310.007 29.6351C309.95 29.97 305.723 33.8347 305.294 34.6235C305.324 33.7826 303.113 33.5246 302.92 34.3283C302.804 34.3041 302.686 34.2925 302.568 34.2936C302.462 34.207 302.367 34.1069 302.287 33.9959C301.568 33.1749 300.988 31.9991 300.184 31.2177C300.256 30.9895 300.124 30.4364 300.184 30.3099C300.412 29.7865 306.122 27.1992 306.998 26.589C307.298 27.6879 309.173 27.1422 309.285 27.2067C309.337 27.2538 309.913 28.2163 310.173 28.3378H310.175ZM299.338 22.325H299.306C299.321 22.3264 299.337 22.3264 299.353 22.325C299.348 22.3254 299.343 22.3254 299.338 22.325ZM295.233 30.4612C295.711 30.0122 297.696 30.228 298.331 30.3173L298.462 30.1635C298.504 30.2109 298.556 30.2489 298.614 30.2751C298.824 30.4785 298.559 30.6001 298.614 30.9672C298.755 31.9941 299.606 31.3988 300.248 31.8577C300.891 32.3166 301.985 33.9811 302.325 34.7649C301.878 34.6822 301.585 35.0626 301.444 35.906C300.982 35.9973 300.507 36.0132 300.04 35.9531C299.745 35.3776 298.656 34.941 298.465 35.6554L298.348 35.3354L296.056 34.8046C295.967 34.4115 295.761 34.0548 295.465 33.7819C295.168 33.5089 294.796 33.3327 294.397 33.2766L294.233 32.7259C295.131 32.1281 295.21 31.4683 295.233 30.4686V30.4612ZM299.502 36.8436C299.874 36.9652 299.899 36.9081 299.799 36.5459C300.378 36.5136 300.957 36.5136 301.536 36.5459H301.575L301.424 36.8585C302.228 38.031 302.099 38.5337 301.037 38.3667L300.831 38.6147C300.122 38.4237 299.75 37.5034 299.502 36.8511V36.8436ZM311.453 27.6805C310.322 27.9533 309.377 27.5416 310.213 26.3435C310.399 25.9193 310.431 25.5993 310.317 25.3736L313.385 24.3813C313.609 24.8043 313.884 25.1984 314.204 25.5546L313.847 25.4802L311.453 27.6805ZM305.279 13.8961L305.889 14.3401L304.364 18.1304C303.991 18.1998 303.103 18.1849 303.272 17.5598C304.016 16.9323 303.748 16.3394 303.366 15.63C303.342 15.6376 303.316 15.6376 303.292 15.63H303.366L303.701 15.7441L305.279 13.8961ZM302.967 9.43109V9.4559C303.508 9.80461 304.03 10.1822 304.53 10.587C303.951 11.6669 304.005 12.593 304.691 13.3652L303.081 15.2207C302.947 15.372 303.049 15.5134 303.22 15.6349C302.265 16.0963 301.045 16.3345 302.01 17.6194C301.605 18.1477 300.119 22.2952 299.864 22.3324C299.804 22.3324 298.812 22.2009 298.658 22.1588L298.589 22.0645C298.383 21.5014 298.224 18.4677 298.028 17.8476C298.096 17.8088 298.155 17.7554 298.199 17.6913C298.492 17.5946 299.045 17.4705 299.192 16.8678C299.375 16.0467 299.137 15.8036 298.78 15.1934L299.137 15.2132C299.974 13.3942 300.801 11.5751 301.618 9.75605C302.131 9.85775 302.734 9.87759 302.967 9.42613V9.43109ZM287.183 3.61421C287.56 3.84684 288.005 3.94235 288.443 3.88459C288.89 5.58625 290.562 5.90376 291.708 4.65356L292.631 4.93634C292.666 5.83102 292.852 6.71332 293.181 7.54588C293.139 7.71456 291.884 9.26738 291.514 8.86801C290.187 8.01222 288.813 8.3719 287.446 8.76135L286.377 7.09938L285.998 7.02744C286.174 6.70993 286.134 6.31305 285.879 5.83182C286.546 5.40765 287.744 4.37078 287.183 3.60925V3.61421ZM278.861 3.65142C279.528 3.65142 279.853 3.51995 280.225 2.99904H280.97C281.012 5.11742 282.939 6.55614 284.988 6.22375C285.211 6.85133 285.484 7.17132 285.844 7.18868L285.68 7.49131L286.816 9.39388C286.449 9.75108 285.328 11.4354 285.804 11.8447C285.86 11.8879 285.924 11.9191 285.993 11.9364C284.599 12.4921 282.569 11.6041 281.242 11.9364C281.218 10.4828 279.64 9.98674 278.638 10.9045C277.876 10.3638 277.149 9.78333 276.433 9.188C276.433 8.45376 276.256 8.08333 275.902 8.07672C276.745 6.50911 277.736 5.02563 278.861 3.64646V3.65142ZM285.69 13.0626C284.387 13.5532 283.115 14.1214 281.88 14.7643C280.295 15.7094 280.124 14.4864 280.342 13.0577C280.724 12.9336 281.334 12.6136 280.952 12.2217L285.849 12.3681C285.571 12.44 285.511 12.6707 285.69 13.0577V13.0626ZM274.654 10.1058C275.068 10.1058 275.567 10.019 275.619 9.62954V9.76349C276.601 10.3185 277.517 10.9843 278.348 11.7479C278.387 12.4921 278.677 12.755 279.275 13.1097C279.344 13.6503 279.378 14.1946 279.377 14.7395C279.086 15.0205 278.766 15.2699 278.422 15.4836C278.174 15.568 274.932 15.6052 274.79 15.4836C274.669 14.5609 274.165 14.0499 273.426 13.5538L274.48 10.6689L274.255 10.4208C274.535 10.4357 274.639 10.3315 274.654 10.1008V10.1058ZM265.379 5.60609C265.508 5.4771 268.733 4.6486 268.912 4.68829C269.77 5.82686 270.926 6.69505 272.399 6.11212L273.64 7.89316C273.49 8.06106 273.382 8.26206 273.325 8.47966C273.269 8.69726 273.264 8.92524 273.313 9.14486C273.361 9.36448 273.461 9.56947 273.604 9.74299C273.747 9.91651 273.929 10.0536 274.136 10.143L273.783 10.2447L272.689 13.2759L270.807 13.5414V13.5662C270.225 12.6075 269.556 11.7049 268.807 10.8698C269.499 9.46086 268.678 8.33221 267.118 8.59267C266.992 8.52817 265.553 6.59335 265.382 6.33537C265.292 6.21879 265.201 5.77973 265.379 5.60113V5.60609ZM269.261 19.8444C269.276 19.6236 269.247 19.402 269.175 19.1926C269.103 18.9831 268.991 18.7899 268.845 18.624C269.252 17.9626 269.694 17.3226 270.167 16.7065C270.348 17.2944 270.911 17.9766 271.407 17.9791C271.235 18.5845 271.007 19.1725 270.725 19.7353C269.988 19.579 269.504 19.6187 269.261 19.8444ZM259.431 9.01932C260.212 8.61003 260.587 8.24043 260.671 7.31767L262.408 6.58839C262.44 6.54218 262.457 6.48721 262.457 6.43087C262.457 6.37454 262.44 6.31956 262.408 6.27336C262.719 6.54234 263.084 6.7417 263.478 6.85807C263.873 6.97443 264.287 7.00512 264.695 6.94807L266.409 8.98211C265.727 10.6143 266.62 11.3709 268.232 11.3808L270.025 13.8465C270.231 14.0945 270.425 14.2061 270.717 13.9879C270.281 14.2731 269.433 15.7094 269.973 16.0666C269.274 16.4585 268.765 18.1031 268.277 18.4504C267.927 18.6984 267.589 18.5322 267.232 18.5942C267.007 18.6339 266.813 18.8969 266.654 18.8696C266.496 18.8423 264.035 16.6966 263.874 16.4411C263.66 16.1062 264.146 15.3298 263.377 14.8709C262.609 14.412 262.212 15.0967 261.77 15.0024C261.274 14.9007 260.175 13.8663 259.582 13.6927C260.55 13.4446 259.89 11.4751 259.054 11.1774L259.431 9.01932ZM245.932 19.9337L247.378 20.7201L247.71 20.5266C247.901 21.2385 249.139 21.1318 249.782 21.0549C249.925 21.404 250.189 21.6901 250.526 21.8611C250.694 22.3051 251.734 24.87 251.719 25.0387C251.719 25.0833 251.223 25.376 251.042 25.5695C250.749 25.9019 250.707 26.15 250.526 26.4625C250.494 26.5146 250.402 26.5568 250.377 26.6114C249.385 26.3459 248.318 25.7729 247.4 25.2743L247.385 24.932L246.215 24.3094C246.267 23.1187 245.967 22.2009 244.917 21.5386L245.932 19.9337ZM245.188 37.3968C243.91 36.9007 242.375 37.0545 241.063 37.4613C241.11 36.7171 241.075 34.373 241.038 33.9885C241.038 33.9488 240.996 33.9166 240.946 33.8918C241.368 33.9314 242.149 33.5346 242.377 33.3287C243.265 32.5399 243.56 31.1532 242.873 30.1511C242.682 29.8758 242.308 29.4615 241.97 29.4392C242.152 28.5281 242.412 27.6343 242.747 26.7676C244.186 26.9214 245.227 26.6089 245.952 25.2793C246.489 25.5257 246.931 25.5737 247.276 25.4232C248.092 25.8151 248.901 26.3534 249.707 26.785C249.913 26.8966 250.176 26.8445 250.097 27.2042C249.907 27.9511 249.861 28.7271 249.96 29.4913C250.032 30.0072 250.704 31.0416 250.66 31.2599C250.413 31.688 250.128 32.0931 249.809 32.4704C249.491 32.6168 248.517 32.0636 247.72 32.9144C246.83 33.8645 247.569 35.0849 247.507 35.2213C247.445 35.3578 245.979 37.109 245.793 37.2951C245.602 37.1636 245.401 37.2082 245.183 37.3968H245.188ZM257.66 46.2176C256.33 45.8604 255.316 46.4334 255.427 47.8324C255.216 47.6141 254.885 47.6092 254.435 47.8175C253.917 47.1999 253.443 47.3438 252.87 47.8051L251.322 47.2569C251.173 45.5602 249.883 45.2849 248.569 46.1085C248.258 45.9616 247.902 45.9412 247.576 46.0514C247.607 45.9804 247.622 45.904 247.622 45.8269C247.622 45.7498 247.607 45.6734 247.576 45.6024C248.147 44.7216 248.456 43.6974 248.469 42.6481L248.182 42.3405C248.946 42.4645 250.221 42.1718 250.91 42.3405C251.136 42.3951 251.138 43.7941 252.862 43.8288C253.661 43.8512 253.999 43.685 254.502 43.0847C254.564 43.0127 254.998 42.3777 255.016 42.3405L255.162 42.6729L256.881 43.0227C257.037 44.1167 257.434 45.1624 258.044 46.0836L257.66 46.2176ZM260.862 38.9099C259.957 38.9392 259.09 39.2792 258.407 39.8729C257.723 40.4665 257.265 41.2775 257.109 42.1693L255.145 41.9213L254.981 42.1991C254.698 39.9418 251.878 39.2225 251.047 41.3111C251.009 41.5045 250.982 41.7 250.967 41.8965C250.871 41.9957 248.556 41.837 248.154 41.8965C248.67 41.4773 248.097 40.2395 247.797 39.6863C247.407 38.9028 246.776 38.2654 245.996 37.8681L245.929 37.5927C246.212 37.2479 247.467 35.6877 247.715 35.5835C248.013 35.457 248.407 35.8315 248.809 35.8043C249.142 35.7633 249.459 35.6424 249.735 35.4519C250.011 35.2614 250.236 35.007 250.392 34.7103C250.858 33.5296 250.007 33.0062 250.099 32.6515C250.171 32.3761 250.903 31.9991 250.828 31.508C250.933 31.4286 251.53 31.8577 251.716 31.952C252.007 32.7978 253.684 33.0955 254.519 32.8822L255.398 35.7646C253.584 37.2876 256.035 39.8848 257.456 37.8383C258.201 36.7791 257.241 35.705 256.216 35.3702L255.472 32.8078C255.777 32.6143 257.243 31.689 257.283 31.4286C257.297 31.302 257.273 31.174 257.213 31.0615L257.578 31.0912C257.909 30.5075 258.165 30.4306 258.347 30.8605C258.513 32.0239 259.014 32.5349 260.18 32.5969L260.813 33.3163C260.036 34.4499 260.835 35.4793 262.135 35.3007L263.112 36.3673C262.524 37.3769 262.571 38.2873 263.308 39.1704C263.217 39.2242 263.141 39.3002 263.087 39.3913C263.034 39.4824 263.004 39.5856 263 39.6913C262.862 38.9595 261.512 38.8851 260.857 38.9099H260.862ZM269.529 25.1255C269.06 25.0908 268.8 25.0858 269.085 25.572C267.565 24.8973 266.223 23.6471 264.62 23.1981L268.924 25.8697C268.525 25.9019 268.411 26.2492 268.579 26.9065C268.986 28.0029 269.018 28.5313 267.706 28.509C267.432 28.594 267.198 28.7738 267.045 29.0161C266.891 29.2584 266.829 29.5473 266.87 29.8311C267.267 31.1111 266.446 30.9474 265.513 30.543L265.213 30.7663C265.285 30.3644 264.67 29.6252 264.643 29.3276C264.613 28.9828 265.62 28.5983 265.047 27.5912C264.404 26.4625 262.591 27.2166 263.062 28.695C263.333 29.5582 264.013 29.1291 264.303 29.3052C264.385 29.3548 264.968 30.7936 264.92 31.0615L264.538 31.0342C264.223 31.8999 261.81 31.1359 261.458 30.8208C260.961 29.4193 259.887 29.0299 258.662 29.9403L258.228 29.7989C258.682 28.256 258.104 26.7403 257.176 25.4877C257.389 25.3488 257.479 25.2396 257.35 24.9916C258.094 24.4508 258.955 24.0465 259.582 23.3594C258.739 23.5528 257.92 24.2027 257.208 24.6939C256.95 24.5186 256.702 24.7162 256.464 25.2867C256.578 24.5426 254.82 23.8331 254.386 24.3962L254.185 24.0886C253.519 24.0381 252.851 24.1487 252.237 24.4111L251.101 21.871L250.675 21.5783C250.785 21.4789 250.855 21.343 250.873 21.1958C250.891 21.0486 250.855 20.8999 250.771 20.7771C251.353 20.4622 251.87 20.0416 252.297 19.5368C252.597 19.1548 253.182 18.3859 252.753 18.0212C253.18 18.1701 255.896 18.7952 256.003 18.9241C256.11 19.0531 255.819 19.775 256.38 20.1074C256.73 20.2693 257.122 20.3178 257.501 20.2463C257.786 20.596 258.33 20.3405 258.096 19.9511C258.406 19.9858 258.555 19.9511 258.392 19.6534C258.582 19.4434 258.532 19.3442 258.243 19.3558C258.146 18.7976 258.215 18.1998 257.392 18.0436C256.648 17.8997 256.293 18.6314 256.1 18.6265C255.269 18.6091 253.827 17.7806 252.902 17.7236C253.507 17.4011 253.215 16.2576 253.019 15.6672C252.707 14.7761 252.142 13.9951 251.394 13.4198C251.352 13.3305 252.406 12.2763 252.607 12.1175C253.433 12.2713 254.115 12.3656 254.703 11.6462L256.36 12.2242C256.246 13.2933 256.561 14.3649 257.724 14.6824C258.243 14.8238 259.461 14.6948 259.282 14.0127L259.359 14.3624C260.568 14.6932 261.304 15.3356 261.567 16.2898L262.227 16.9794C261.753 18.562 263.035 18.6463 263 17.0166C263.151 16.956 263.307 16.9103 263.467 16.8802C263.631 16.9397 266.059 18.9638 266.161 19.1127C266.19 19.3721 266.199 19.6333 266.188 19.894C265.578 20.1818 265.059 20.9855 265.96 20.6977C266.522 21.0177 267.148 21.2115 267.793 21.2658L268.336 21.7346L268.351 22.32L269.72 24.7137C269.539 24.8204 269.472 24.9643 269.524 25.1255H269.529ZM275.301 23.7463C275.248 23.7838 275.207 23.8363 275.183 23.8974C275.16 23.9584 275.155 24.025 275.17 24.0886C273.93 22.9178 272.486 23.0592 272.124 24.9295C271.945 25.443 270.978 24.9593 270.698 24.7336C270.539 24.6046 268.83 21.3526 268.785 21.1393L269.085 21.1194C268.837 22.5532 270.767 22.7343 271.412 21.5486C271.643 21.5064 275.676 22.8236 275.862 22.965C276.271 23.28 275.711 23.8133 275.297 23.7463H275.301ZM276.073 22.1191C275.825 22.1191 271.551 20.7275 271.467 20.4968C271.681 19.7474 271.945 19.0131 272.258 18.299L272.273 18.3189C272.953 18.3102 273.629 18.2041 274.279 18.0039L274.185 18.3412L276.599 21.2435C276.544 21.4469 276.249 22.1116 276.068 22.1191H276.073ZM279.456 20.0627C278.665 20.023 277.864 20.1471 277.224 20.658L274.991 18.0584L274.423 17.855C274.562 17.3862 274.689 16.8901 274.808 16.3667C275.17 16.4486 277.904 16.4114 278.529 16.3667C278.452 16.8628 279.149 17.6467 279.62 17.3986L279.335 17.6268L279.456 20.0627ZM284.365 23.2676C284.242 23.4742 284.137 23.6918 284.053 23.9175C283.879 24.0291 282.525 23.724 282.458 23.6248C282.391 23.5256 282.416 22.3002 281.912 21.5758C281.409 20.8515 280.148 20.4472 280.091 20.3529C279.9 20.0503 280.181 17.8153 280.067 17.2622C280.771 18.051 281.458 16.6197 281.227 15.8309L285.941 13.9829C286.46 14.6954 287.126 15.2877 287.895 15.7193L287.523 17.6392L287.771 17.865C287.399 19.4376 286.883 21.0053 286.566 22.5954C285.809 22.5581 284.901 22.6574 284.36 23.2676H284.365ZM291.559 25.3438C290.708 25.2545 290.093 25.3736 289.423 25.9441C288.87 25.4926 288.471 25.4157 288.225 25.7208C288.166 24.7286 288.27 24.0093 287.565 23.1907C287.399 22.9972 286.96 22.8508 286.915 22.6648C286.839 22.3448 287.771 18.944 287.93 18.299L288.262 18.1502C288.348 17.423 288.515 16.7075 288.758 16.0169C292.536 16.647 294.727 12.6161 292.559 9.59729C292.576 9.4435 293.863 8.02214 294.228 8.46616C295.404 9.29466 296.882 9.57745 298.145 8.73902C298.544 8.47608 299.385 7.61285 299.06 7.17132C299.288 7.51198 299.72 7.76003 300.355 7.91548C300.161 8.52569 300.462 8.96475 300.829 9.41869L298.385 14.8238L298.616 15.0371C298.313 15.118 298.016 15.2174 297.726 15.3348C297.659 15.2356 297.574 15.1215 297.463 15.114C296.691 15.052 296.351 16.7934 296.8 17.3936C296.162 18.2897 295.457 19.1355 294.689 19.9238C293.042 19.5468 292.298 21.0177 292.923 22.4738C292.913 22.635 291.698 25.2669 291.556 25.3438H291.559ZM293.417 28.8166C292.963 28.9976 292.127 29.1043 292.09 28.4519C292.678 27.5341 292.834 26.8272 292.258 25.8598L293.697 22.9526C295.111 22.8881 295.974 21.9132 295.434 20.5142L297.019 18.4652C297.171 18.3414 297.309 18.2008 297.43 18.046C297.445 18.7679 297.76 21.7669 297.837 22.2009C297.837 22.2009 297.852 22.2208 297.86 22.2282C297.287 22.2282 296.488 23.0344 296.272 23.4685C296.004 24.0142 295.826 25.2223 296.52 25.4157C296.426 26.088 295.652 26.6759 295.186 27.1968L294.838 27.1422L293.417 28.8166ZM294.037 43.3774C294.975 43.5113 295.979 43.0103 296.441 42.596C297.661 43.1318 298.861 43.6874 300.04 44.2629C300.085 44.7888 300.253 45.0418 300.536 45.0195L300.34 45.3221C301.099 46.7906 301.68 46.6864 303.017 46.1506C303.317 46.0316 307.412 49.1719 308.119 49.7871C307.871 50.0773 307.241 51.2134 307.658 51.5483C306.876 51.4739 305.043 52.4239 304.098 52.2925C303.818 52.0444 303.572 51.5334 303.17 51.3672C302.769 51.201 302.238 51.3672 301.93 51.1192C301.526 50.3584 301.163 49.5768 300.841 48.7775C300.757 48.3161 301.089 48.2194 301.102 47.9341C301.221 46.3466 299.068 46.8179 299.395 48.0011C299.611 48.7775 300.236 48.4625 300.496 48.6188C300.618 48.6932 301.675 51.077 301.687 51.2184C301.717 51.5408 300.831 51.8683 300.819 52.8977C300.067 53.1924 299.281 53.3899 298.48 53.4856C297.822 52.1436 296.277 51.7319 294.92 52.166C294.489 51.3218 294.112 50.451 293.791 49.5589C296.165 48.2392 296.245 44.9823 293.705 43.8139C293.605 43.4741 293.722 43.3898 294.035 43.3699L294.037 43.3774ZM290.889 49.2091C291.518 49.5809 292.228 49.7945 292.958 49.8318C293.284 50.8023 293.706 51.738 294.218 52.6248C294.035 52.7485 293.884 52.9134 293.777 53.1061L289.842 51.3474L289.651 50.3775C289.914 50.0972 289.981 49.8466 289.855 49.6333C290.177 49.7325 290.52 49.5961 290.887 49.2017L290.889 49.2091ZM289.728 52.3098C291.002 52.8853 292.252 53.4153 293.479 53.8998L293.395 53.9495C293.343 54.9495 293.501 55.9493 293.861 56.8839L293.521 56.7996C292.889 57.6777 291.931 57.6504 291.155 56.9683C290.961 56.7996 288.992 53.4236 289.029 53.2127C289.433 53.0465 289.602 52.7017 289.728 52.3098ZM279.062 68.9171C275.135 69.0089 275.076 74.4884 278.973 74.8059L280.032 79.891C279.444 79.8464 278.931 80.8832 278.881 81.4786L274.222 83.3861C274.133 82.7833 273.23 81.8978 272.796 82.2599C273.121 81.8606 274.22 79.7645 274.451 79.6008C274.57 79.5164 275.956 80.3822 276.636 79.0501C277.514 77.3311 275.17 76.0412 274.133 77.5841C273.466 78.5763 274.339 78.9782 274.173 79.5437C274.106 79.7695 272.965 81.4215 272.744 81.6894C272.657 81.7936 272.627 81.8829 272.573 81.9375C272.449 81.9347 272.325 81.9438 272.203 81.9647C272.022 81.233 269.971 81.1511 269.681 81.8159L269.852 81.5108C269.552 81.1362 269.633 78.3605 269.762 78.2563C272.188 78.229 273.704 75.2375 272.146 73.3448C271.809 72.9356 271.04 72.1889 270.571 72.6156L271.018 70.8321C273.716 71.8739 275.929 68.9593 274.2 66.6821C274.044 66.4762 273.729 66.3944 273.704 66.3596C273.592 66.1736 273.803 65.9429 273.833 65.7891L274.185 65.8809L275.249 64.4099C275.994 64.844 276.698 64.7795 277.499 64.6009L278.697 65.6229C278.568 66.5506 278.876 67.4469 279.62 68.3118C279.357 68.3093 279.171 68.5103 279.062 68.9171ZM290.668 78.7152C289.9 78.5647 289.532 78.7078 289.567 79.1444C289.297 78.7599 288.736 78.9682 288.553 79.3304C287.949 78.4724 287.458 77.5403 287.092 76.5572C287.545 76.2917 287.697 75.88 287.739 75.3764L289.939 74.9448C290.187 75.7683 290.594 76.7184 291.49 76.9962C291.552 77.0706 291.018 78.8144 290.661 78.7152H290.668ZM291.432 71.6854L291.348 72.0202L288.24 67.3196C288.379 66.9029 288.736 66.8012 288.806 66.3001C289.054 64.8267 287.813 63.6558 286.439 64.4521C286.03 64.2809 285.973 64.3504 286.144 64.7498C285.583 65.4939 285.73 67.0467 286.729 67.3543C287.225 67.5056 287.791 67.275 288.146 67.5701L291.189 72.1691C290.52 72.5296 290.053 73.1729 289.79 74.0989L287.603 74.6397C287.191 74.0493 286.578 73.8145 285.764 73.9352C284.889 72.236 283.8 70.4029 282.433 69.0535L282.584 68.7335L281.88 67.6049C282.108 67.2799 282.096 67.0691 281.84 66.9748C281.877 66.8334 281.885 66.6859 281.864 66.5413C281.842 66.3968 281.791 66.2581 281.714 66.1339C281.565 65.9255 279.786 64.9259 279.466 65.0449C278.931 64.8663 278.563 64.4719 278.196 63.9957C278.955 62.9092 278.717 62.0286 278.315 60.8702C278.848 60.2969 279.429 59.7699 280.052 59.295C280.358 59.6799 280.787 59.9485 281.267 60.0566C281.709 60.1856 283.004 60.2699 283.316 59.9995C283.539 60.1533 283.639 60.0541 283.614 59.7043C284.236 60.0169 285.033 58.985 285.288 58.4045C285.544 57.8241 285.809 56.3655 285.097 56.1423C284.988 55.7379 284.467 54.9714 284.519 54.7631C284.989 54.2594 285.486 53.7816 286.008 53.3318C286.752 53.4509 287.528 53.565 288.312 53.6791C288.985 54.8119 289.627 55.9604 290.237 57.1246C287.419 58.2507 287.89 62.1874 291.14 62.0857C291.507 63.4698 291.815 64.8663 292.065 66.2753C291.797 66.3199 291.539 66.6623 291.373 66.9029C290.656 67.9298 290.83 69.4504 291.869 70.1871C293.603 70.8023 293.112 71.5985 291.425 71.6878L291.432 71.6854ZM297.666 67.1261C297.374 67.4454 297.173 67.8366 297.083 68.2595C296.993 68.6824 297.017 69.1217 297.153 69.5322C295.821 69.8374 295.649 71.1198 296.408 72.0128C296.066 71.8921 295.677 72.0781 295.24 72.5709C294.835 72.1166 294.324 71.7697 293.752 71.5613L293.715 70.6287C295.783 70.2119 296.396 67.3122 294.555 66.253C294.111 66.0049 293.042 65.6204 292.844 66.2257C292.765 65.4815 291.539 62.1824 291.673 61.7235C291.718 61.5647 292.638 61.0289 292.876 60.5452C293.439 59.3868 292.737 58.722 292.876 58.1689C293.243 57.767 293.631 57.3853 294.04 57.0253C294.933 57.3857 295.904 57.5121 296.86 57.3925L297.438 58.8411C296.716 59.3372 297.497 60.952 298.197 60.4386L299.234 66.6722C298.864 66.191 297.989 66.7764 297.666 67.1261ZM302.285 65.9578L300.983 67.0443L299.76 66.3001L299.512 66.5283L298.621 60.2947C299.843 61.6458 301.083 63.0225 302.342 64.4248L302.63 64.3008C302.429 64.521 302.291 64.7903 302.228 65.0812C302.165 65.3722 302.181 65.6746 302.272 65.9578H302.285ZM304.651 62.0013C304.517 62.4974 304.48 63.765 305.147 63.7104C304.734 63.8312 304.357 64.0548 304.053 64.3603C303.658 64.1611 303.211 64.09 302.774 64.1569L302.838 63.8022L299.502 59.9946C299.373 59.1082 298.949 58.6121 298.229 58.5062L297.654 57.0353C298.492 56.244 298.75 55.4924 298.829 54.386L300.893 53.9346L300.993 53.6245C301.427 54.7507 302.456 54.3687 302.907 54.8995C303.124 55.2851 303.314 55.6845 303.478 56.0951C303.535 56.6706 302.868 57.065 303.478 58.0349C303.895 58.7071 304.944 58.5112 305.08 58.66C305.348 58.9527 305.825 60.4311 305.897 60.8925C305.326 60.4609 304.775 61.4854 304.639 62.0137L304.651 62.0013ZM316.389 46.932C316.191 47.1215 316.035 47.3508 315.932 47.6048C315.828 47.8588 315.78 48.1318 315.789 48.4059C315.799 48.68 315.867 48.9489 315.987 49.1951C316.108 49.4413 316.28 49.6591 316.491 49.8342L315.563 51.9278C313.413 52.0394 312.485 53.493 313.4 55.4552C313.418 55.6734 312.594 56.7649 312.425 56.8492C310.334 56.3531 309.109 57.8563 309.575 59.8606L308.583 60.8528C308.122 60.6048 307.767 60.5626 307.524 60.7412C307.107 60.6172 306.326 60.6221 306.182 60.5229C306.085 60.4584 305.239 58.474 305.306 58.3797C305.328 58.35 305.616 58.3028 305.745 58.1515C306.437 57.3552 306.04 55.728 304.892 55.5767C304.192 55.4824 303.627 56.3705 303.285 55.1029C303.074 54.3166 303.595 54.3885 303.875 53.9023C304.155 53.4161 303.952 52.8531 304.406 52.5777C305.09 52.7464 307.253 51.7641 308.127 51.8336C307.747 53.1234 309.411 54.0313 310.607 53.9519C313.291 53.7733 314.149 50.2584 311.882 48.78C312.259 47.3959 312.673 46.0324 313.122 44.6896C313.621 44.3811 314.007 43.9201 314.224 43.3749C315.181 43.0747 316.342 42.9606 317.339 42.782C317.19 43.1417 317.419 43.4567 318.019 43.7246C318.066 44.5965 317.914 45.4677 317.575 46.2722L317.726 46.5376C317.414 46.163 316.679 46.6343 316.377 46.932H316.389ZM318.314 38.1186L316.022 35.1196C316.565 34.0629 316.377 32.8871 315.226 32.334C314.876 32.1628 313.839 32.1504 313.901 32.6961C313.633 31.8255 312.076 30.4636 311.88 29.7195C311.79 29.3846 312.165 29.2482 312.128 28.9108C312.105 28.6975 311.835 28.5313 311.847 28.3304C311.894 27.6681 313.988 26.3732 314.348 25.7109L314.392 26.0632C315.182 26.5095 316.092 26.6969 316.994 26.599L317.567 28.447C317.28 28.5189 317.009 28.891 316.875 29.149C315.99 30.8655 317.466 31.7138 318.798 32.2397L318.488 32.4555C318.717 34.2087 318.817 35.9762 318.788 37.744L319.096 38.1757C318.967 37.9938 318.702 37.9747 318.302 38.1186H318.314Z" fill="url(#paint0_linear_9460_50778)"/>
<path d="M294.894 108.747C294.825 108.328 295.308 107.859 295.638 107.636C295.733 107.16 295.832 106.874 295.604 106.41C295.239 105.666 294.18 105.823 294.185 104.414C294.185 103.982 295.021 103.94 294.681 102.881C294.463 102.206 293.855 102.159 293.262 102.137C293.027 101.866 292.828 101.567 292.669 101.246C292.669 101.154 292.917 100.961 292.959 100.715C292.97 100.496 292.97 100.277 292.959 100.058C293.076 99.5344 292.56 99.0656 292.084 98.949C291.007 99.1723 290.196 98.7555 290.58 97.5946C290.68 96.2204 288.943 95.6896 288.1 96.6421C287.913 96.6245 287.733 96.5623 287.575 96.4609C287.417 96.3595 287.286 96.2218 287.192 96.0592H286.865C286.842 94.4344 285.52 93.6233 283.982 93.8465C282.94 93.9978 282.472 95.1339 282.308 95.1736C281.812 95.2952 280.924 94.8536 280.323 95.0198C280.837 94.7891 280.323 94.0797 279.966 93.8713C279.726 93.7336 279.457 93.6552 279.181 93.6426C278.905 93.6299 278.629 93.6835 278.378 93.7987C278.127 93.914 277.906 94.0877 277.736 94.3052C277.565 94.5228 277.449 94.778 277.396 95.0496L275.985 95.4142C274.092 93.0949 270.664 94.5857 271.19 97.5525L270.148 98.3934C268.499 97.9667 267.189 98.8895 267.534 100.646C267.727 101.219 267.846 101.973 267.067 102.089C266.308 101.975 265.723 101.953 265.187 102.585C264.728 103.33 264.443 103.977 264.788 104.843C264.946 105.24 265.329 105.448 265.309 105.885C265.309 106.16 264.743 107.934 264.579 108.134C264.331 108.44 264.036 108.383 263.853 108.521C263.5 108.804 263.334 109.479 263.411 109.923C263.56 110.774 264.572 110.687 264.46 111.714C264.426 112.051 263.451 112.356 263.734 113.612C263.942 114.532 264.664 114.356 265.336 114.604C265.279 114.697 265.252 114.806 265.259 114.916C265.265 115.025 265.305 115.13 265.373 115.216C264.951 115.458 264.84 115.749 265.038 116.09C264.917 116.69 265.244 117.551 265.887 117.69C266.358 117.794 266.879 117.583 267.266 118.017C267.474 118.124 267.514 118.017 267.415 117.722C267.606 117.786 267.663 117.687 267.561 117.424C268.035 117.566 268.36 116.834 267.859 116.68C269.263 116.477 270.51 117.149 271.865 116.829L271.803 117.399C271.361 117.786 271.235 118.089 271.421 118.312C271.009 118.111 270.354 119.552 270.441 119.734C270.704 120.299 271.696 119.637 271.272 119.203L271.641 119.188L272.433 118.052C272.887 118.439 273.326 118.486 273.904 118.466C274.077 118.563 275.531 121.859 275.568 122.053C275.799 123.236 275.015 123.087 274.191 122.663C273.966 121.658 272.544 121.532 272.162 122.467C272.191 122.075 272.091 122.026 271.865 122.318C271.55 122.115 271.351 121.822 270.828 121.725C270.828 121.8 270.652 121.902 270.744 122.026C270.865 122.192 271.473 122.39 271.718 122.616C272.244 123.1 271.82 123.05 271.892 123.42C272.009 124.01 273.455 123.69 273.646 123.802C274.332 123.67 275.038 123.67 275.724 123.802C275.953 124.419 275.849 125.114 276.469 125.731C276.469 126.704 278.289 127.098 279.15 127.093C280.011 127.088 281.722 126.696 281.663 125.731C282.186 125.153 282.3 124.449 282.655 123.792C283.451 123.792 285.401 122.524 285.92 122.497C286.361 122.472 286.865 123.338 287.827 122.472C288.512 121.857 287.884 121.366 288.182 120.904C288.517 120.54 288.87 120.193 289.241 119.865C289.576 119.716 289.96 120.073 290.499 119.652C291.099 119.178 290.814 118.759 290.938 118.466C291 118.325 292.731 116.162 292.858 116.075C293.297 115.77 293.865 116.162 294.259 115.4C294.408 115.128 294.461 114.814 294.411 114.508C294.36 114.202 294.209 113.921 293.981 113.711C294.289 113.215 294.381 112.012 294.656 111.642C295.026 111.146 296.023 111.406 295.896 110.089C295.852 109.117 294.974 109.233 294.894 108.747ZM286.751 96.9522C287.081 97.2069 287.468 97.3772 287.879 97.4483C287.606 98.5199 288.802 99.4327 289.737 98.8051C290.564 99.1987 290.771 99.6948 290.357 100.293C290.774 101.1 290.466 101.738 289.432 102.206C288.532 101.66 287.696 101.39 286.661 101.68C286.277 100.652 285.966 99.5972 285.731 98.5248C286.336 98.4777 287.187 97.3739 286.751 96.9522ZM283.226 98.5496C283.598 98.825 284.399 99.0606 284.845 98.8572C284.848 98.8829 284.855 98.908 284.865 98.9316L285.858 102.122L285.242 102.546C284.447 102.081 283.629 101.656 282.792 101.273C283.146 100.879 282.774 99.8817 282.424 99.4848C282.653 99.1459 282.918 98.8323 283.213 98.5496H283.226ZM278.351 96.6297C279.254 97.168 281.12 96.1956 280.368 95.32L280.599 95.6226C281.045 95.5815 281.494 95.5965 281.936 95.6673C281.845 96.5004 282.054 97.3385 282.526 98.0312C282.28 98.3727 282.008 98.6944 281.712 98.9937C281.135 99.1159 280.55 99.1988 279.961 99.2417L276.258 97.3912C276.052 95.7491 277.419 95.5308 278.339 96.6297H278.351ZM265.584 107.08L265.862 106.17C268.208 106.686 269.478 104.185 267.95 102.471C268.081 102.26 268.229 102.059 268.392 101.871C270.3 102.796 271.865 100.879 270.873 99.0805L271.766 98.3884C272.822 99.8941 275.469 99.7726 275.93 97.8427L279.934 99.78C279.572 100.698 279.879 101.224 280.212 102.035C279.753 102.571 278.788 104.763 278.304 105.039C278.026 105.202 277.615 105.039 277.267 105.19C276.92 105.341 276.722 105.954 276.523 106.073C276.213 106.172 275.897 106.249 275.576 106.304C275.434 106.304 275.218 105.128 274.154 105.708C273.678 105.957 273.795 106.314 273.47 106.584C273.032 106.81 272.578 107.005 272.113 107.167C271.664 107.232 271.153 106.686 270.657 106.609C269.141 106.361 268.295 107.353 268.367 108.824L268.102 108.521C266.71 108.822 264.827 109.144 265.572 107.08H265.584ZM265.219 111.568C265.204 111.436 265.204 111.303 265.219 111.171C266.1 111.032 266.333 110.33 266.271 109.519L268.149 109.315C268.149 109.376 268.162 109.437 268.188 109.492C268.214 109.548 268.253 109.596 268.301 109.635C268.348 109.673 268.404 109.7 268.464 109.714C268.523 109.728 268.585 109.728 268.645 109.715C268.149 110.583 267.268 111.332 266.569 112.088C266.09 111.987 265.631 111.812 265.207 111.568H265.219ZM271.723 115.447C271.587 115.856 271.388 116.573 271.909 116.687C271.485 116.725 270.94 116.276 270.639 116.243C270.277 116.206 269.873 116.534 269.456 116.546C268.98 116.561 268.429 116.273 267.903 116.39C268.623 115.541 267.159 114.993 266.341 115.063L266.053 114.423C266.27 114.253 266.437 114.027 266.537 113.77C266.637 113.513 266.666 113.234 266.621 112.962C266.832 112.664 266.869 112.421 266.718 112.235C267.154 111.739 267.978 110.995 268.496 110.526C268.652 110.382 268.764 110.213 268.977 110.169H269.092C270.481 110.985 272.316 110.109 272.301 108.487C272.301 108.239 272.053 107.594 272.123 107.494C272.626 107.241 273.147 107.022 273.681 106.84C273.872 106.805 273.981 106.892 274.137 106.909C275.278 107.048 274.789 106.909 275.685 106.604C276.925 106.187 276.536 106.745 277.111 107.127C278.52 108.06 279.678 106.291 278.599 105.076C279.222 104.674 280.175 102.278 280.532 102.025C280.609 101.97 281.489 102.469 282.293 101.715L282.412 102.042C283.214 102.361 283.965 102.793 284.645 103.325C283.947 105.309 284.645 107.366 286.78 107.948L286.118 109.816C285.868 109.734 285.601 109.72 285.344 109.774C283.93 109.973 283.424 111.632 284.022 112.803L282.73 114.958L282.893 115.221L282.137 115.125L279.309 110.456C279.934 109.491 279.936 108.224 278.513 108.028C277.865 107.931 276.632 109.248 277.302 109.973C276.455 111.286 275.581 112.584 274.678 113.867C273.485 113.49 272.115 114.254 271.711 115.447H271.723ZM280.703 120.123C279.917 119.838 279.063 119.793 278.252 119.994C277.44 120.195 276.706 120.633 276.144 121.252L274.782 118.22C276.409 117.437 276.65 115.804 275.583 114.413C275.546 114.192 277.568 110.816 277.873 110.588C278.242 110.312 278.572 110.3 278.84 110.57C278.889 110.605 278.947 110.626 279.007 110.632C279.067 110.638 279.127 110.629 279.182 110.605C279.944 111.984 280.966 113.401 281.638 114.755C281.779 114.978 281.853 115.236 281.854 115.499C280.614 115.316 281.169 116.958 281.519 117.697L280.703 120.123ZM285.595 122.107L282.935 123.139C282.687 122.179 282.171 121.415 281.487 120.659L282.204 118.054C282.948 118.054 283.856 118.005 283.992 117.117C284.153 116.968 286.016 116.988 285.977 117.675L286.311 117.737C286.574 118.59 286.448 119.557 286.758 120.406C285.85 119.969 285.664 121.415 285.582 122.11L285.595 122.107ZM290.719 118.007C289.479 117.308 288.487 118.007 288.886 119.414L287.82 120.463C287.408 120.132 287.147 120.111 287.036 120.398L286.589 117.729C287.701 118.692 288.752 116.953 288.006 115.861C286.718 115.41 286.423 114.666 286.497 113.299C286.908 113.086 287.037 112.831 286.887 112.535L292.081 114.462C291.419 114.638 291.853 115.484 292.314 115.787C291.858 116.578 291.324 117.322 290.719 118.007ZM294.133 111.639L293.48 113.301C292.964 113.036 291.895 113.616 292.24 114.167C290.752 113.636 289.209 113.113 287.745 112.503C287.519 112.408 287.289 112.349 287.192 112.088C287.797 111.84 287.368 110.377 286.793 110.288L286.979 110.268C287.223 109.487 287.498 108.722 287.802 107.973C290.479 107.824 291.429 104.895 290.169 102.764C290.779 102.02 292.029 101.097 292.513 102.39C291.86 103.424 292.421 104.523 293.634 104.657L293.852 105.389C292.768 106.611 292.791 107.822 294.334 108.626C293.123 109.64 292.808 110.523 294.133 111.639Z" fill="#CA9A46"/>
<path d="M270.678 120.212C269.624 119.716 268.612 121.205 269.822 121.735C270.168 121.702 270.516 121.702 270.862 121.735C270.944 121.224 271.291 120.505 270.678 120.212Z" fill="#CA9A46"/>
<path d="M4.12265 105.284L1.91992 96.6024H3.10562L4.13505 100.995C4.3831 102.079 4.63116 103.161 4.77999 103.999H4.8048C4.94867 103.136 5.21905 102.104 5.51423 100.983L6.67513 96.6024H7.84595L8.90266 101.008C9.15071 102.04 9.37892 103.072 9.50791 103.985H9.5352C9.7138 103.032 9.95937 102.065 10.2298 100.983L11.3758 96.6024H12.5243L10.0636 105.284H8.89026L7.79385 100.762C7.55365 99.8282 7.36485 98.8817 7.22829 97.927H7.19356C7.01964 98.8833 6.79525 99.8297 6.52133 100.762L5.28106 105.284H4.12265Z" fill="#633175"/>
<path d="M14.2754 96.1361H15.409V100.028H15.4338C15.6251 99.6892 15.9068 99.4101 16.2474 99.2219C16.5987 99.0149 16.9981 98.9037 17.4058 98.8994C18.2443 98.8994 19.5838 99.4154 19.5838 101.566V105.287H18.4501V101.702C18.4501 100.698 18.0756 99.847 17.0065 99.847C16.6664 99.8537 16.337 99.9665 16.0643 100.17C15.7916 100.373 15.5894 100.657 15.4859 100.981C15.4242 101.154 15.3981 101.338 15.409 101.521V105.284H14.2754V96.1361Z" fill="#633175"/>
<path d="M22.8203 102.372C22.8451 103.905 23.8125 104.538 24.9586 104.538C25.5539 104.558 26.1466 104.448 26.6949 104.215L26.8884 105.026C26.23 105.305 25.5196 105.44 24.8048 105.423C22.8848 105.423 21.7363 104.161 21.7363 102.278C21.7363 100.395 22.8451 98.9167 24.6634 98.9167C26.6974 98.9167 27.2382 100.708 27.2382 101.854C27.2363 102.03 27.2239 102.207 27.201 102.382L22.8203 102.372ZM26.1443 101.561C26.1443 100.839 25.8466 99.718 24.5716 99.718C23.4256 99.718 22.922 100.775 22.8352 101.561H26.1443Z" fill="#633175"/>
<path d="M29.4271 100.993C29.4271 100.249 29.4271 99.6287 29.375 99.0482H30.3672L30.4069 100.271H30.459C30.7418 99.4352 31.4239 98.9068 32.1954 98.9068C32.304 98.9055 32.4124 98.918 32.5179 98.944V100.013C32.3906 99.9867 32.2608 99.9742 32.1309 99.9759C31.3322 99.9759 30.7641 100.581 30.6103 101.432C30.5775 101.606 30.5601 101.783 30.5582 101.96V105.284H29.437L29.4271 100.993Z" fill="#633175"/>
<path d="M34.9159 102.372C34.9407 103.905 35.9205 104.538 37.0541 104.538C37.6495 104.558 38.2421 104.448 38.7905 104.215L38.984 105.026C38.3278 105.3 37.6211 105.432 36.9102 105.413C34.9903 105.413 33.8418 104.151 33.8418 102.268C33.8418 100.385 34.9506 98.9069 36.7688 98.9069C38.8029 98.9069 39.3436 100.698 39.3436 101.844C39.3418 102.021 39.3294 102.197 39.3064 102.372H34.9159ZM38.2398 101.561C38.2522 100.839 37.9421 99.718 36.6671 99.718C35.5211 99.718 35.0176 100.775 34.9308 101.561H38.2398Z" fill="#633175"/>
<path d="M46.3862 97.2573V99.0483H48.011V99.9115H46.3862V103.275C46.3862 104.047 46.607 104.486 47.2371 104.486C47.4586 104.488 47.6795 104.462 47.8944 104.409L47.9465 105.26C47.6238 105.372 47.2833 105.424 46.9419 105.413C46.7154 105.427 46.4887 105.391 46.2773 105.309C46.0659 105.227 45.8746 105.1 45.7165 104.937C45.394 104.602 45.2799 104.047 45.2799 103.312V99.9115H44.3125V99.0483H45.2799V97.56L46.3862 97.2573Z" fill="#633175"/>
<path d="M55.622 102.114C55.622 104.421 54.0246 105.426 52.5164 105.426C50.8272 105.426 49.5273 104.185 49.5273 102.218C49.5273 100.13 50.8916 98.9069 52.6181 98.9069C54.4091 98.9069 55.622 100.214 55.622 102.114ZM50.6734 102.179C50.6734 103.545 51.4597 104.575 52.5685 104.575C53.6773 104.575 54.4611 103.558 54.4611 102.154C54.4611 101.097 53.9328 99.7577 52.5933 99.7577C51.2538 99.7577 50.6734 100.993 50.6734 102.179Z" fill="#633175"/>
<path d="M66.7013 99.0482C66.674 99.4997 66.6492 100.001 66.6492 100.762V104.381C66.6492 105.813 66.3639 106.688 65.7587 107.229C65.1534 107.77 64.2703 107.973 63.4915 107.973C62.7663 107.991 62.0498 107.813 61.4177 107.457L61.7005 106.594C62.2537 106.924 62.887 107.096 63.5311 107.09C64.6896 107.09 65.5404 106.485 65.5404 104.912V104.218H65.5156C65.3063 104.551 65.0125 104.824 64.664 105.007C64.3155 105.19 63.9246 105.278 63.5311 105.262C61.9833 105.262 60.877 103.947 60.877 102.221C60.877 100.107 62.2537 98.9093 63.6849 98.9093C64.7664 98.9093 65.3593 99.4749 65.6297 99.9908H65.657L65.7091 99.0507L66.7013 99.0482ZM65.528 101.509C65.5346 101.335 65.5128 101.16 65.4635 100.993C65.3676 100.647 65.1604 100.342 64.8739 100.125C64.5874 99.9089 64.2375 99.7927 63.8784 99.7949C62.7969 99.7949 62.023 100.71 62.023 102.154C62.023 103.377 62.6406 104.386 63.866 104.386C64.2169 104.384 64.5581 104.27 64.8403 104.062C65.1225 103.853 65.3311 103.56 65.4362 103.225C65.4981 103.03 65.5291 102.826 65.528 102.62V101.509Z" fill="#633175"/>
<path d="M74.9463 102.114C74.9463 104.421 73.3488 105.426 71.8406 105.426C70.1514 105.426 68.8516 104.185 68.8516 102.218C68.8516 100.13 70.2159 98.9069 71.9423 98.9069C73.7333 98.9069 74.9463 100.214 74.9463 102.114ZM69.9976 102.179C69.9976 103.545 70.7839 104.575 71.8927 104.575C73.0015 104.575 73.7854 103.558 73.7854 102.154C73.7854 101.097 73.257 99.7577 71.9175 99.7577C70.578 99.7577 69.9976 100.993 69.9976 102.179Z" fill="#633175"/>
<path d="M76.57 104.615C76.5631 104.509 76.5781 104.404 76.6141 104.305C76.65 104.206 76.7062 104.115 76.7789 104.039C76.8517 103.963 76.9394 103.903 77.0367 103.862C77.1339 103.821 77.2386 103.802 77.3439 103.803C77.5064 103.796 77.6675 103.836 77.8065 103.921C77.9455 104.006 78.0559 104.13 78.1236 104.278C78.1912 104.426 78.2129 104.591 78.186 104.751C78.159 104.911 78.0846 105.06 77.9723 105.178C77.86 105.295 77.715 105.377 77.556 105.411C77.397 105.446 77.2313 105.432 77.0804 105.371C76.9294 105.31 76.8001 105.206 76.7091 105.071C76.6182 104.936 76.5697 104.777 76.57 104.615Z" fill="#633175"/>
<path d="M84.7775 105.284L82.5723 96.6025H83.758L84.7899 100.996C85.0379 102.08 85.286 103.161 85.4323 103.999H85.4596C85.601 103.136 85.8714 102.104 86.1691 100.983L87.3275 96.6025H88.5008L89.5476 101.005C89.7956 102.037 90.0238 103.069 90.1528 103.982H90.1776C90.3587 103.03 90.6043 102.062 90.8747 100.981L92.0281 96.6H93.1741L90.7134 105.282H89.5476L88.4536 100.76C88.2127 99.8258 88.0231 98.8793 87.8856 97.9246H87.8608C87.689 98.8811 87.4654 99.8276 87.191 100.76L85.9508 105.282L84.7775 105.284Z" fill="#633175"/>
<path d="M94.9297 96.1361H96.0633V100.028H96.0881C96.2802 99.6926 96.5608 99.4163 96.8992 99.2293C97.2513 99.022 97.6516 98.9108 98.0601 98.9069C98.8961 98.9069 100.238 99.4228 100.238 101.573V105.294H99.102V101.702C99.102 100.698 98.7299 99.847 97.6608 99.847C97.3207 99.8537 96.9913 99.9665 96.7186 100.17C96.4459 100.373 96.2437 100.657 96.1402 100.981C96.0785 101.154 96.0523 101.338 96.0633 101.521V105.284H94.9297V96.1361Z" fill="#633175"/>
<path d="M106.306 105.284L106.216 104.498H106.167C105.945 104.793 105.657 105.031 105.325 105.193C104.993 105.354 104.628 105.434 104.259 105.426C102.997 105.426 102.352 104.538 102.352 103.635C102.352 102.127 103.694 101.303 106.102 101.315V101.186C106.102 100.671 105.961 99.7428 104.683 99.7428C104.11 99.7454 103.549 99.9059 103.061 100.207L102.813 99.4625C103.431 99.0909 104.141 98.8993 104.862 98.9093C106.769 98.9093 107.233 100.209 107.233 101.459V103.791C107.225 104.289 107.259 104.787 107.335 105.279L106.306 105.284ZM106.137 102.102C104.897 102.077 103.495 102.295 103.495 103.506C103.484 103.65 103.504 103.795 103.553 103.931C103.603 104.067 103.681 104.19 103.783 104.293C103.885 104.396 104.007 104.476 104.142 104.527C104.278 104.578 104.422 104.599 104.567 104.59C104.896 104.599 105.22 104.502 105.491 104.314C105.761 104.127 105.965 103.857 106.072 103.545C106.113 103.429 106.135 103.307 106.137 103.183V102.102Z" fill="#633175"/>
<path d="M111.15 97.2573V99.0483H112.773V99.9115H111.15V103.275C111.15 104.047 111.369 104.486 112.001 104.486C112.223 104.488 112.444 104.462 112.659 104.409L112.708 105.26C112.386 105.372 112.045 105.424 111.704 105.413C111.477 105.427 111.251 105.391 111.04 105.309C110.829 105.227 110.638 105.1 110.481 104.937C110.158 104.602 110.042 104.047 110.042 103.312V99.9115H109.074V99.0483H110.042V97.56L111.15 97.2573Z" fill="#633175"/>
<path d="M119.691 97.2573V99.0483H121.316V99.9115H119.691V103.275C119.691 104.047 119.912 104.486 120.542 104.486C120.763 104.488 120.984 104.462 121.199 104.409L121.251 105.26C120.929 105.372 120.588 105.424 120.247 105.413C120.02 105.427 119.793 105.391 119.582 105.309C119.371 105.227 119.179 105.1 119.021 104.937C118.699 104.602 118.585 104.047 118.585 103.312V99.9115H117.617V99.0483H118.585V97.56L119.691 97.2573Z" fill="#633175"/>
<path d="M128.931 102.114C128.931 104.421 127.333 105.426 125.825 105.426C124.136 105.426 122.836 104.185 122.836 102.218C122.836 100.13 124.2 98.9069 125.927 98.9069C127.718 98.9069 128.931 100.214 128.931 102.114ZM123.982 102.179C123.982 103.545 124.768 104.575 125.875 104.575C126.981 104.575 127.77 103.558 127.77 102.154C127.77 101.097 127.241 99.7577 125.902 99.7577C124.562 99.7577 123.982 100.993 123.982 102.179Z" fill="#633175"/>
<path d="M140.024 96.1361V103.687C140.024 104.24 140.024 104.873 140.074 105.297H139.057L139.005 104.215H138.98C138.777 104.598 138.469 104.916 138.093 105.133C137.717 105.349 137.288 105.455 136.854 105.438C135.346 105.438 134.188 104.163 134.188 102.268C134.173 100.194 135.463 98.9193 136.983 98.9193C137.936 98.9193 138.581 99.3707 138.863 99.8718H138.891V96.151L140.024 96.1361ZM138.891 101.593C138.892 101.433 138.874 101.273 138.839 101.117C138.757 100.744 138.551 100.409 138.253 100.17C137.955 99.9308 137.584 99.801 137.201 99.8024C136.028 99.8024 135.334 100.834 135.334 102.213C135.334 103.476 135.951 104.518 137.177 104.518C137.567 104.517 137.944 104.382 138.247 104.136C138.549 103.89 138.758 103.547 138.839 103.166C138.876 103.003 138.894 102.837 138.891 102.67V101.593Z" fill="#633175"/>
<path d="M148.323 102.114C148.323 104.421 146.725 105.426 145.217 105.426C143.528 105.426 142.24 104.185 142.24 102.218C142.24 100.13 143.605 98.9069 145.331 98.9069C147.11 98.9069 148.323 100.214 148.323 102.114ZM143.361 102.179C143.361 103.545 144.148 104.575 145.254 104.575C146.36 104.575 147.149 103.558 147.149 102.154C147.149 101.097 146.621 99.7577 145.281 99.7577C143.942 99.7577 143.376 100.993 143.376 102.179H143.361Z" fill="#633175"/>
<path d="M149.945 104.615C149.938 104.509 149.953 104.404 149.989 104.305C150.025 104.206 150.081 104.115 150.154 104.039C150.227 103.963 150.314 103.903 150.412 103.862C150.509 103.821 150.614 103.802 150.719 103.803C150.881 103.796 151.043 103.836 151.182 103.921C151.32 104.006 151.431 104.13 151.499 104.278C151.566 104.426 151.588 104.591 151.561 104.751C151.534 104.911 151.46 105.06 151.347 105.178C151.235 105.295 151.09 105.377 150.931 105.411C150.772 105.446 150.606 105.432 150.455 105.371C150.304 105.31 150.175 105.206 150.084 105.071C149.993 104.936 149.945 104.777 149.945 104.615Z" fill="#633175"/>
<path d="M158.6 102.553L157.7 105.282H156.539L159.491 96.6H160.843L163.819 105.282H162.621L161.694 102.553H158.6ZM161.448 101.678L160.6 99.1773C160.406 98.6092 160.277 98.0933 160.148 97.5922H160.121C159.992 98.1081 159.851 98.6365 159.684 99.1649L158.834 101.678H161.448Z" fill="#633175"/>
<path d="M165.777 96.1361H166.911V105.284H165.777V96.1361Z" fill="#633175"/>
<path d="M169.592 96.1361H170.725V105.284H169.592V96.1361Z" fill="#633175"/>
<path d="M178.172 97.2945C178.172 97.4807 178.098 97.6592 177.966 97.7909C177.835 97.9225 177.656 97.9965 177.47 97.9965C177.284 97.9965 177.105 97.9225 176.973 97.7909C176.842 97.6592 176.768 97.4807 176.768 97.2945C176.765 97.2008 176.782 97.1076 176.817 97.0206C176.852 96.9336 176.904 96.8546 176.97 96.7884C177.037 96.7222 177.116 96.6703 177.203 96.6358C177.29 96.6012 177.384 96.5848 177.477 96.5876C177.57 96.5843 177.663 96.6005 177.75 96.6351C177.836 96.6696 177.915 96.7218 177.98 96.7883C178.045 96.8548 178.096 96.9341 178.129 97.0212C178.162 97.1084 178.177 97.2015 178.172 97.2945ZM176.909 105.284V99.0483H178.043V105.284H176.909Z" fill="#633175"/>
<path d="M180.699 100.735C180.699 100.093 180.686 99.5642 180.646 99.0482H181.639L181.703 100.078H181.73C181.935 99.7132 182.235 99.4114 182.598 99.205C182.961 98.9987 183.374 98.8956 183.792 98.9068C184.655 98.9068 185.995 99.4228 185.995 101.561V105.282H184.861V101.702C184.861 100.698 184.486 99.8594 183.417 99.8594C183.073 99.865 182.74 99.9805 182.467 100.189C182.193 100.397 181.993 100.688 181.897 101.018C181.843 101.189 181.818 101.367 181.82 101.546V105.297H180.686L180.699 100.735Z" fill="#633175"/>
<path d="M197.77 102.114C197.77 104.421 196.172 105.426 194.664 105.426C192.977 105.426 191.688 104.185 191.688 102.218C191.688 100.13 193.054 98.9069 194.781 98.9069C196.559 98.9069 197.77 100.214 197.77 102.114ZM192.824 102.179C192.824 103.545 193.607 104.575 194.716 104.575C195.825 104.575 196.611 103.558 196.611 102.154C196.611 101.097 196.083 99.7577 194.744 99.7577C193.404 99.7577 192.824 100.993 192.824 102.179Z" fill="#633175"/>
<path d="M199.972 100.735C199.972 100.093 199.972 99.5642 199.92 99.0483H200.925L200.987 100.078H201.014C201.218 99.7136 201.519 99.4121 201.882 99.2058C202.245 98.9995 202.658 98.8962 203.075 98.9069C203.938 98.9069 205.278 99.4228 205.278 101.561V105.282H204.149V101.702C204.149 100.698 203.777 99.8594 202.706 99.8594C202.362 99.8651 202.029 99.9806 201.755 100.189C201.482 100.397 201.282 100.688 201.185 101.018C201.132 101.189 201.106 101.367 201.108 101.546V105.297H199.974L199.972 100.735Z" fill="#633175"/>
<path d="M208.527 102.372C208.551 103.905 209.531 104.538 210.665 104.538C211.26 104.558 211.853 104.448 212.401 104.215L212.595 105.026C211.939 105.3 211.232 105.432 210.521 105.413C208.601 105.413 207.455 104.151 207.455 102.268C207.455 100.385 208.561 98.9069 210.38 98.9069C212.416 98.9069 212.957 100.698 212.957 101.844C212.955 102.021 212.941 102.197 212.917 102.372H208.527ZM211.851 101.561C211.863 100.839 211.555 99.718 210.278 99.718C209.132 99.718 208.631 100.775 208.542 101.561H211.851Z" fill="#633175"/>
<path d="M218.668 96.7017C219.379 96.5873 220.098 96.5317 220.819 96.5355C221.927 96.5355 222.739 96.7835 223.254 97.2573C223.506 97.4864 223.704 97.7676 223.835 98.0813C223.966 98.3949 224.027 98.7334 224.014 99.0731C224.031 99.4113 223.98 99.7495 223.865 100.068C223.75 100.387 223.573 100.679 223.344 100.929C222.751 101.561 221.786 101.884 220.69 101.884C220.387 101.893 220.085 101.866 219.789 101.804V105.277H218.668V96.7017ZM219.789 100.891C220.093 100.96 220.405 100.99 220.717 100.981C222.069 100.981 222.895 100.323 222.895 99.1251C222.895 97.9791 222.081 97.4235 220.846 97.4235C220.491 97.4136 220.137 97.4444 219.789 97.5153V100.891Z" fill="#633175"/>
<path d="M226.191 96.1361H227.325V105.284H226.191V96.1361Z" fill="#633175"/>
<path d="M233.459 105.284L233.367 104.498H233.33C233.109 104.791 232.823 105.027 232.493 105.188C232.164 105.349 231.801 105.429 231.435 105.423C230.172 105.423 229.527 104.535 229.527 103.632C229.527 102.124 230.867 101.301 233.278 101.313V101.184C233.278 100.668 233.134 99.7403 231.859 99.7403C231.286 99.7425 230.724 99.9031 230.237 100.204L229.989 99.46C230.607 99.0884 231.316 98.8968 232.038 98.9069C233.945 98.9069 234.407 100.207 234.407 101.457V103.789C234.399 104.287 234.434 104.785 234.511 105.277L233.459 105.284ZM233.29 102.102C232.05 102.077 230.649 102.295 230.649 103.506C230.637 103.65 230.656 103.795 230.706 103.931C230.755 104.066 230.833 104.19 230.935 104.293C231.036 104.396 231.159 104.476 231.294 104.527C231.429 104.578 231.573 104.6 231.718 104.59C232.047 104.598 232.371 104.501 232.642 104.314C232.913 104.126 233.118 103.857 233.226 103.545C233.266 103.429 233.288 103.307 233.29 103.183V102.102Z" fill="#633175"/>
<path d="M241.434 105.054C240.87 105.303 240.259 105.426 239.643 105.413C237.76 105.413 236.537 104.138 236.537 102.231C236.537 100.323 237.852 98.9193 239.886 98.9193C240.427 98.9136 240.963 99.0235 241.459 99.2417L241.21 100.117C240.805 99.9057 240.352 99.8031 239.896 99.8197C238.467 99.8197 237.693 100.879 237.693 102.179C237.693 103.622 238.621 104.51 239.859 104.51C240.34 104.513 240.815 104.408 241.25 104.203L241.434 105.054Z" fill="#633175"/>
<path d="M244.086 102.372C244.111 103.905 245.078 104.538 246.224 104.538C246.82 104.558 247.412 104.448 247.961 104.215L248.154 105.026C247.495 105.305 246.785 105.44 246.07 105.423C244.15 105.423 243.002 104.161 243.002 102.278C243.002 100.395 244.111 98.9167 245.927 98.9167C247.963 98.9167 248.504 100.708 248.504 101.854C248.502 102.03 248.49 102.207 248.467 102.382L244.086 102.372ZM247.41 101.561C247.422 100.839 247.112 99.718 245.837 99.718C244.691 99.718 244.188 100.775 244.101 101.561H247.41Z" fill="#633175"/>
<path d="M250.257 104.615C250.251 104.509 250.266 104.404 250.302 104.305C250.338 104.206 250.394 104.115 250.466 104.039C250.539 103.963 250.627 103.903 250.724 103.862C250.821 103.821 250.926 103.802 251.031 103.803C251.194 103.796 251.355 103.836 251.494 103.921C251.633 104.006 251.743 104.13 251.811 104.278C251.879 104.426 251.9 104.591 251.873 104.751C251.846 104.911 251.772 105.06 251.66 105.178C251.547 105.295 251.402 105.377 251.243 105.411C251.085 105.446 250.919 105.432 250.768 105.371C250.617 105.31 250.488 105.206 250.397 105.071C250.306 104.936 250.257 104.777 250.257 104.615Z" fill="#633175"/>
<path d="M215.663 54.1653V58.7394C208.966 59.5257 203.558 65.1715 202.764 71.8367H198.195C198.86 62.6314 206.475 54.9144 215.663 54.1653Z" fill="#CA9A46"/>
<path d="M236.867 71.8366H232.295C231.719 66.1016 227.612 61.21 222.219 59.357C221.408 59.0767 220.465 59.094 219.82 58.6351V54.1702C228.859 55.1996 236.244 62.733 236.867 71.8366Z" fill="#CA9A46"/>
<path d="M22.7689 79.6975C22.7689 85.9559 17.6441 89.7214 11.3857 89.7214C5.12729 89.7214 0 85.187 0 78.9261H5.89626C5.89626 82.1012 8.21061 83.9616 11.6015 83.9616C14.5509 83.9616 16.8628 82.8726 16.8628 79.6975C16.8628 72.8934 0.987257 77.4303 0.987257 65.9999C0.987257 60.1955 4.97846 57.2461 11.2394 57.2461C17.5003 57.2461 21.489 60.9669 21.489 67.2253H15.6026C15.6026 64.0949 14.0597 63.0084 11.2493 63.0084C8.43882 63.0084 6.89344 64.142 6.89344 66.1835C6.89344 72.8934 22.7689 67.4064 22.7689 79.6975Z" fill="#633175"/>
<path d="M48.4396 78.0206C48.4396 80.3354 47.7532 82.5982 46.4671 84.5228C45.181 86.4475 43.3531 87.9475 41.2145 88.8332C39.0758 89.7189 36.7226 89.9506 34.4523 89.4988C32.1821 89.047 30.0967 87.9321 28.4601 86.2952C26.8235 84.6582 25.7091 82.5727 25.2578 80.3023C24.8065 78.0319 25.0386 75.6787 25.9248 73.5403C26.8109 71.4018 28.3114 69.5742 30.2363 68.2886C32.1612 67.0029 34.4241 66.3169 36.7389 66.3174C38.2767 66.3138 39.8 66.6141 41.2214 67.201C42.6428 67.7879 43.9342 68.6498 45.0215 69.7373C46.1087 70.8248 46.9704 72.1164 47.557 73.5379C48.1436 74.9594 48.4436 76.4828 48.4396 78.0206ZM30.9319 78.0206C30.9319 81.3768 33.4274 83.9739 36.7836 83.9739C40.1397 83.9739 42.5434 81.3892 42.5434 78.0206C42.5434 74.652 40.1397 72.0673 36.7836 72.0673C33.4274 72.0673 30.9319 74.6645 30.9319 78.0206Z" fill="#633175"/>
<path d="M99.1023 57.6083L90.0434 89.3593H84.1347L77.0131 67.5429L69.8021 89.3593H63.9059L54.9238 57.6083H61.1847L66.8528 79.1543L74.4284 57.6083H79.5978L87.0816 79.1543L92.8439 57.6083H99.1023Z" fill="#633175"/>
<path d="M120.419 77.4303V89.3593H114.523V77.4303C114.523 73.8013 113.344 72.0773 110.442 72.0773C107.54 72.0773 106.359 73.8013 106.359 77.4303V89.3593H100.463V57.6083H106.359V67.4511C107.574 66.668 108.998 66.2726 110.442 66.3175C116.247 66.3175 120.419 69.8101 120.419 77.4303Z" fill="#633175"/>
<path d="M122.914 78.0207C122.914 74.9234 124.144 71.9529 126.335 69.7628C128.525 67.5727 131.495 66.3423 134.592 66.3423C137.69 66.3423 140.66 67.5727 142.85 69.7628C145.04 71.9529 146.271 74.9234 146.271 78.0207V89.3593H140.375V86.9556C139.695 88.4439 137.2 89.7214 134.615 89.7214C131.512 89.7214 128.535 88.4887 126.341 86.2944C124.147 84.1 122.914 81.1239 122.914 78.0207ZM140.422 78.0207C140.422 74.662 138.016 72.0674 134.659 72.0674C131.303 72.0674 128.81 74.6521 128.81 78.0207C128.81 81.3893 131.303 83.974 134.659 83.974C138.016 83.974 140.422 81.3769 140.422 78.0207Z" fill="#633175"/>
<path d="M155.795 72.432V78.6334C155.795 82.2599 156.976 83.7135 159.878 83.7135V89.4734C154.071 89.4734 149.899 86.2486 149.899 78.6334V72.432H146.543V66.6796H149.899V57.6554H155.795V66.6796H159.878V72.432H155.795Z" fill="#633175"/>
<path d="M171.289 82.0119H176.915C176.915 83.463 178.728 84.4602 181.177 84.4602C183.625 84.4602 184.897 83.468 184.897 82.2823C184.897 78.5193 171.517 82.1459 171.517 73.1663C171.517 69.1751 175.645 66.3175 180.906 66.3175C186.167 66.3175 190.159 68.9494 190.159 73.7591H184.533C184.533 72.4445 182.764 71.5267 180.812 71.5267C178.86 71.5267 177.411 72.4345 177.411 73.6128C177.411 76.8772 190.699 73.8385 190.791 82.4113C190.836 87.4914 186.574 89.714 181.04 89.714C175.962 89.7215 171.289 87.0921 171.289 82.0119Z" fill="#633175"/>
<path d="M205.229 74.6199C205.229 67.7463 210.663 62.3809 217.535 62.3809C224.406 62.3809 229.841 67.7463 229.841 74.6199C229.841 81.4935 224.406 86.8564 217.544 86.8564C210.683 86.8564 205.229 81.491 205.229 74.6199ZM225.398 74.6199C225.398 70.1747 221.98 66.7218 217.535 66.7218C213.089 66.7218 209.671 70.1747 209.671 74.6199C209.671 79.065 213.079 82.5155 217.544 82.5155C222.009 82.5155 225.398 79.0625 225.398 74.6199Z" fill="#633175"/>
<path d="M253.529 86.5835H249.084V77.594C249.084 74.8654 248.193 73.5581 246.005 73.5581C243.818 73.5581 242.93 74.8579 242.93 77.594V86.5835H238.484V77.594C238.484 71.849 241.63 69.2172 246.005 69.2172C250.381 69.2172 253.529 71.849 253.529 77.594V86.5835Z" fill="#633175"/>
<path d="M202.774 75.7856V88.2603H219.3C220.099 88.2603 222.656 87.407 223.497 87.0498C227.92 85.172 231.583 80.6302 232.087 75.7856H236.867C235.852 83.4927 230.289 90.081 222.775 92.1572C222.076 92.3507 220.329 92.8394 219.717 92.8394H198.195V75.7856H202.774Z" fill="#CA9A46"/>
<path d="M168.685 57.1588C167.455 57.1588 166.392 56.7859 165.497 56.0401C164.602 55.2757 164.155 54.2131 164.155 52.8521C164.155 51.6775 164.593 50.6894 165.469 49.8877C166.345 49.086 167.38 48.6852 168.573 48.6852C169.468 48.6852 170.279 48.9276 171.006 49.4123C171.733 49.897 172.302 50.6148 172.712 51.5657C173.122 52.4978 173.327 53.6537 173.327 55.0334C173.327 56.8791 172.936 58.6036 172.153 60.207C171.37 61.829 170.41 63.1061 169.272 64.0383C168.154 64.9891 167.138 65.4645 166.224 65.4645C165.646 65.4645 165.171 65.2687 164.798 64.8772C164.444 64.5044 164.267 64.0662 164.267 63.5629C164.267 62.7985 164.649 62.1832 165.413 61.7171C167.594 60.5053 168.685 58.9858 168.685 57.1588Z" fill="#633175"/>
<defs>
<linearGradient id="paint0_linear_9460_50778" x1="279.615" y1="5.62022e-05" x2="279.615" y2="89.6098" gradientUnits="userSpaceOnUse">
<stop offset="0.25" stop-color="#6B316B"/>
<stop offset="1" stop-color="#5F844E"/>
</linearGradient>
</defs>
</svg>
